<?xml version="1.0" encoding="UTF-8"?>
<svg width="79px" height="60px" viewBox="0 0 79 60" version="1.1" xmlns="http://www.w3.org/2000/svg" xmlns:xlink="http://www.w3.org/1999/xlink">
    <!-- Generator: Sketch 59 (86127) - https://sketch.com -->
    <title>icons 26-photos default</title>
    <desc>Created with Sketch.</desc>
    <g id="1.-Create-Project" stroke="none" stroke-width="1" fill="none" fill-rule="evenodd">
        <g id="Create_Project-UPDATE" transform="translate(-825.000000, -513.000000)" fill="#E6E6E6">
            <g id="Photo-Upload" transform="translate(609.000000, 412.000000)">
                <g id="Photo-drag-and-Drop" transform="translate(0.000000, 24.000000)">
                    <g id="icon+text" transform="translate(171.000000, 77.000000)">
                        <g id="icons-26-photos-default" transform="translate(45.603326, 0.000000)">
                            <g id="photos">
                                <path d="M0,60 L78,60 L78,0 L0,0 L0,60 Z M6,6 L72,6 L72,25.836 L60.039,13.887 L30.087,43.8 L21.084,34.836 L6,49.926 L6,6 Z M60.039,22.368 L72,34.32 L72,54 L10.41,54 L21.093,43.317 L30.093,52.275 L60.039,22.368 Z M21,24 C22.656,24 24,22.656 24,21 C24,19.344 22.656,18 21,18 C19.344,18 18,19.344 18,21 C18,22.656 19.344,24 21,24 L21,24 Z M21,30 C16.029,30 12,25.971 12,21 C12,16.029 16.029,12 21,12 C25.971,12 30,16.029 30,21 C30,25.971 25.971,30 21,30 L21,30 Z"></path>
                            </g>
                        </g>
                    </g>
                </g>
            </g>
        </g>
    </g>
</svg>